<svg width="27" height="6" viewBox="0 0 27 6" fill="none" xmlns="http://www.w3.org/2000/svg">
<path fill-rule="evenodd" clip-rule="evenodd" d="M3.5 6C5.15685 6 6.5 4.65685 6.5 3C6.5 1.34315 5.15685 0 3.5 0C1.84315 0 0.5 1.34315 0.5 3C0.5 4.65685 1.84315 6 3.5 6Z" fill="#3897F0"/>
<path fill-rule="evenodd" clip-rule="evenodd" d="M13.5 6C15.1569 6 16.5 4.65685 16.5 3C16.5 1.34315 15.1569 0 13.5 0C11.8431 0 10.5 1.34315 10.5 3C10.5 4.65685 11.8431 6 13.5 6Z" fill="black" fill-opacity="0.15"/>
<path fill-rule="evenodd" clip-rule="evenodd" d="M23.5 6C25.1569 6 26.5 4.65685 26.5 3C26.5 1.34315 25.1569 0 23.5 0C21.8431 0 20.5 1.34315 20.5 3C20.5 4.65685 21.8431 6 23.5 6Z" fill="black" fill-opacity="0.15"/>
</svg>
