<svg width="22" height="23" viewBox="0 0 22 23" fill="none" xmlns="http://www.w3.org/2000/svg">
<mask id="path-1-inside-1_2548_938" fill="white">
<path fill-rule="evenodd" clip-rule="evenodd" d="M20.4517 17.3816C21.435 15.7345 22 13.8088 22 11.7511C22 5.67597 17.0751 0.751099 11 0.751099C4.92487 0.751099 0 5.67597 0 11.7511C0 17.8262 4.92487 22.7511 11 22.7511C13.062 22.7511 14.9915 22.1837 16.6409 21.1966L21.8478 22.5918L20.4517 17.3816Z"/>
</mask>
<path d="M20.4517 17.3816L18.9062 16.4589C18.6568 16.8766 18.5871 17.3775 18.7131 17.8474L20.4517 17.3816ZM16.6409 21.1966L17.1068 19.4579C16.6362 19.3318 16.1346 19.4019 15.7165 19.6521L16.6409 21.1966ZM21.8478 22.5918L21.3819 24.3304C22.0031 24.4969 22.6659 24.3193 23.1206 23.8646C23.5753 23.4098 23.7529 22.7471 23.5865 22.1259L21.8478 22.5918ZM20.2 11.7511C20.2 13.475 19.7276 15.083 18.9062 16.4589L21.9973 18.3042C23.1425 16.3859 23.8 14.1426 23.8 11.7511H20.2ZM11 2.5511C16.081 2.5511 20.2 6.67008 20.2 11.7511H23.8C23.8 4.68185 18.0692 -1.0489 11 -1.0489V2.5511ZM1.8 11.7511C1.8 6.67008 5.91898 2.5511 11 2.5511V-1.0489C3.93076 -1.0489 -1.8 4.68185 -1.8 11.7511H1.8ZM11 20.9511C5.91898 20.9511 1.8 16.8321 1.8 11.7511H-1.8C-1.8 18.8203 3.93076 24.5511 11 24.5511V20.9511ZM15.7165 19.6521C14.3387 20.4767 12.7275 20.9511 11 20.9511V24.5511C13.3965 24.5511 15.6443 23.8908 17.5653 22.7411L15.7165 19.6521ZM16.175 22.9353L21.3819 24.3304L22.3137 20.8531L17.1068 19.4579L16.175 22.9353ZM23.5865 22.1259L22.1904 16.9157L18.7131 17.8474L20.1091 23.0576L23.5865 22.1259Z" fill="black" mask="url(#path-1-inside-1_2548_938)"/>
</svg>
